# xmcd
#
# Track frame offsets:
#	150
#	25022
#	38598
#	58536
#	75760
#	95550
#	128934
#	153289
#	181151
#	206050
#	230113
#	254086
#	280195
#	305025
#
# Disc length: 4340
#
# Revision: 2
# Processed by: cddbd v1.5.1PL0 Copyright (c) Steve Scherf et al.
# Submitted via: audiograbber 1.80
# Normalized: r1:TDELIM( - )
#
DISCID=b810f20e
DTITLE=Party Blues - Blues Collection
DYEAR=1900
DGENRE=
TTITLE0=Artie Blues Boy White - "Man of The House"
TTITLE1=Albert Collins - " Too Tired"
TTITLE2=Andrew "Jr Boy" Jones - "Whatch What You Say"
TTITLE3=Angela Strehli - "Cut You Loose"
TTITLE4=Bernard Allison - "Tell Me Why"
TTITLE5=Big Jack Johnson and The Oilers - "Lonely Man"
TTITLE6=B.B. King - "Darlin' What Happened"
TTITLE7=Bill Perry - "Sneaking Around"
TTITLE8=Buddy Guy - "She's Nineteen Years Old"
TTITLE9=Bugs Henderson - "Thirteen Ways"
TTITLE10=Bo Diddley - "Can I Walk You Home"
TTITLE11=Bobby Parker - "So Glad I Found You"
TTITLE12=Bryan Lee - "Let Me Down Easy"
TTITLE13=Bugs Henderson - "Sweet and Mean"
EXTD=
EXTT0=
EXTT1=
EXTT2=
EXTT3=
EXTT4=
EXTT5=
EXTT6=
EXTT7=
EXTT8=
EXTT9=
EXTT10=
EXTT11=
EXTT12=
EXTT13=
PLAYORDER=
